<?xml version="1.0" encoding="iso-8859-1"?>
<!-- Uploaded to: SVG Repo, www.svgrepo.com, Generator: SVG Repo Mixer Tools -->
<!DOCTYPE svg PUBLIC "-//W3C//DTD SVG 1.1//EN" "http://www.w3.org/Graphics/SVG/1.1/DTD/svg11.dtd">
<svg fill="#000000" version="1.1" id="Capa_1" xmlns="http://www.w3.org/2000/svg" xmlns:xlink="http://www.w3.org/1999/xlink" 
	 width="800px" height="800px" viewBox="0 0 74.354 74.354"
	 xml:space="preserve">
<g>
	<g>
		<path d="M28.725,14.053h-24.2C2.03,14.053,0,16.037,0,18.479v46.814c0,2.441,2.03,4.426,4.525,4.426h24.2
			c2.495,0,4.525-1.984,4.525-4.426V18.478C33.25,16.037,31.22,14.053,28.725,14.053z M30.25,65.293
			c0,0.787-0.684,1.426-1.525,1.426h-24.2C3.684,66.719,3,66.08,3,65.293v-7.074h27.25V65.293z M30.25,55.219H3V23.387h27.25V55.219
			z M30.25,20.387H3v-1.908c0-0.787,0.684-1.426,1.525-1.426h24.2c0.841,0,1.525,0.639,1.525,1.426V20.387z"/>
		<circle cx="16.625" cy="62.074" r="3.063"/>
		<path d="M69.52,4.635H24.522c-2.666,0-4.834,2.17-4.834,4.836v3.58h4v-3.58c0-0.461,0.375-0.836,0.834-0.836H69.52
			c0.461,0,0.834,0.375,0.834,0.836v28.996c0,0.461-0.375,0.836-0.834,0.836H34.717v4h10.305v1.75h-5.875c-1.104,0-2,0.896-2,2
			c0,1.102,0.897,2,2,2h15.625c1.102,0,2-0.898,2-2c0-1.104-0.898-2-2-2h-5.75v-1.75H69.52c2.666,0,4.834-2.17,4.834-4.836V9.47
			C74.354,6.804,72.185,4.635,69.52,4.635z"/>
	</g>
</g>
</svg>